<svg xmlns="http://www.w3.org/2000/svg" width="680" height="400" viewBox="0 0 680 400" role="img">
  <!-- 同じ族（縦）の比較: Li と Na。実質の電荷はどちらも +1、最外殻が L殻と M殻で距離が違う（2026-09-25・ユーザー校正）。
       図の正はこのファイル。PNG は gen-svg-figure.mjs の生成物。 -->
  <style>
    text { font-family: system-ui, sans-serif; fill: #222; font-size: 16px; }
    .b { font-weight: 700; font-size: 18px; }
    .s { font-size: 15px; fill: #444; }
    .nuc { fill: #fde2c4; stroke: #e0762b; stroke-width: 2; }
    .nucT { font-weight: 700; font-size: 16px; fill: #b3541e; text-anchor: middle; }
    .shell { fill: none; stroke: #888; stroke-width: 1.5; }
    .shellOut { fill: none; stroke: #1f618d; stroke-width: 2; }
    .e { fill: #ffe14d; stroke: #222; stroke-width: 1.2; }
    .eOut { fill: #ffe14d; stroke: #1f618d; stroke-width: 2.2; }
    .pull { stroke: #c62828; fill: none; }
    .blue { fill: #1f618d; font-weight: 700; }
    .red { fill: #c62828; font-weight: 700; }
  </style>
  <circle class="shell" cx="170" cy="170" r="40"/>
  <circle class="e" cx="210" cy="170" r="6"/>
  <circle class="e" cx="130" cy="170" r="6"/>
  <circle class="shellOut" cx="170" cy="170" r="70"/>
  <circle class="eOut" cx="170" cy="100" r="7"/>
  <circle class="nuc" cx="170" cy="170" r="21"/>
  <text class="nucT" x="170" y="176">+3</text>
  <text class="b" x="170" y="86" text-anchor="middle">Li</text>
  <circle class="shell" cx="500" cy="170" r="38"/>
  <circle class="e" cx="538" cy="170" r="6"/>
  <circle class="e" cx="462" cy="170" r="6"/>
  <circle class="shell" cx="500" cy="170" r="66"/>
  <circle class="e" cx="525.3" cy="109" r="6"/>
  <circle class="e" cx="561" cy="144.7" r="6"/>
  <circle class="e" cx="561" cy="195.3" r="6"/>
  <circle class="e" cx="525.3" cy="231" r="6"/>
  <circle class="e" cx="474.7" cy="231" r="6"/>
  <circle class="e" cx="439" cy="195.3" r="6"/>
  <circle class="e" cx="439" cy="144.7" r="6"/>
  <circle class="e" cx="474.7" cy="109" r="6"/>
  <circle class="shellOut" cx="500" cy="170" r="100"/>
  <circle class="eOut" cx="500" cy="70" r="7"/>
  <circle class="nuc" cx="500" cy="170" r="21"/>
  <text class="nucT" x="500" y="176">+11</text>
  <text class="b" x="500" y="56" text-anchor="middle">Na</text>
  <line class="pull" stroke-width="2.5" x1="170" y1="148" x2="170" y2="108"/>
  <line class="pull" stroke-width="2.5" x1="500" y1="148" x2="500" y2="78"/>
  <text x="162" y="134" text-anchor="end" class="red">近い</text>
  <text x="490" y="124" text-anchor="end" class="red">遠い</text>
  <text x="170" y="290" text-anchor="middle">原子核 +3、内側の電子 2個</text>
  <text x="170" y="316" text-anchor="middle">→ 実質 <tspan class="red">+1</tspan>（最外殻は L殻）</text>
  <text x="500" y="302" text-anchor="middle">原子核 +11、内側の電子 10個</text>
  <text x="500" y="328" text-anchor="middle">→ 実質 <tspan class="red">+1</tspan>（最外殻は M殻）</text>
  <text x="340" y="376" text-anchor="middle" class="b">実質の電荷は同じ。最外殻が遠い Na のほうが、引く力が弱い</text>
</svg>
